# xmcd
#
# Track frame offsets: 
#        150
#        10487
#        23335
#        36422
#        48550
#        61620
#        74672
#        84695
#        98507
#        110967
#        122727
#        136792
#        145895
#        158020
#        170797
#        183535
#        196712
#        207165
#        219152
#        229987
#        239577
#        253002
#
# Disc length: 3545 seconds
#
# Revision: 2
# Processed by: cddbd v1.5.2PL0 Copyright (c) Steve Scherf et al.
# Submitted via: ExactAudioCopy v0.99pb4
#
DISCID=3c0dd716
DTITLE=Little Walter - The Essential Little Walter [disc 2]
DYEAR=1900
DGENRE=
TTITLE0=Hate to See You Go
TTITLE1=Boom Boom Out Go the Lights
TTITLE2=It Ain't Right
TTITLE3=It's Too Late Brother
TTITLE4=Just a Feeling
TTITLE5=Ah'w Baby
TTITLE6=I've Had My Fun [alt.]
TTITLE7=Confessin' the Blues
TTITLE8=Key to the Highway
TTITLE9=Walkin' On
TTITLE10=You're Gonna Be Sorry (Some Day Baby) [alt.]
TTITLE11=Crazy Mixed Up World
TTITLE12=Worried Life
TTITLE13=Everything's Gonna Be Alright
TTITLE14=Back Track
TTITLE15=Blue and Lonesome
TTITLE16=I Don't Play
TTITLE17=As Long as I Have You
TTITLE18=Just Your Fool
TTITLE19=Up the Line
TTITLE20=Southern Feeling
TTITLE21=Dead Presidents
EXTD=
EXTT0=
EXTT1=
EXTT2=
EXTT3=
EXTT4=
EXTT5=
EXTT6=
EXTT7=
EXTT8=
EXTT9=
EXTT10=
EXTT11=
EXTT12=
EXTT13=
EXTT14=
EXTT15=
EXTT16=
EXTT17=
EXTT18=
EXTT19=
EXTT20=
EXTT21=
PLAYORDER=
